<?xml version="1.0" encoding="utf-8"?>
<!-- Generator: Adobe Illustrator 24.2.0, SVG Export Plug-In . SVG Version: 6.00 Build 0)  -->
<svg version="1.1" id="Capa_1" xmlns="http://www.w3.org/2000/svg" xmlns:xlink="http://www.w3.org/1999/xlink" x="0px" y="0px"
	 viewBox="0 0 382 161" style="enable-background:new 0 0 382 161;" xml:space="preserve">
<style type="text/css">
	.st0{fill:#ED1C24;}
</style>
<g>
	<path d="M79.1,133.9L45.7,87.4L31.4,103v30.9H13.2V26.5h18.2v51.5l46.2-51.5h23.9L58.1,74l43.9,60H79.1z"/>
	<path d="M104.4,114c0-6.3,2-11.3,6.1-15.1c4.1-3.8,9.5-6.2,16.1-7.2l18.9-2.9c3.6-0.5,5.5-2.3,5.5-5.3c0-3.3-1.2-6-3.5-8.1
		c-2.3-2.1-5.8-3.1-10.5-3.1c-4.4,0-8,1.2-10.6,3.7c-2.6,2.5-4.1,5.7-4.5,9.6L106,82c0.7-6.7,3.9-12.3,9.5-17c5.7-4.7,12.8-7,21.5-7
		c10.7,0,18.6,2.6,23.7,7.7c5.1,5.1,7.6,11.8,7.6,19.8v36.7c0,4.8,0.3,8.8,0.9,11.8h-16.4c-0.5-1.5-0.8-4.6-0.8-9.4
		c-4.8,7.8-12.4,11.7-22.7,11.7c-7.5,0-13.5-2.2-18.1-6.6C106.7,125.2,104.4,120,104.4,114z M132.8,122.4c5.5,0,9.9-1.5,13.3-4.5
		c3.4-3,5.1-7.9,5.1-14.6V100l-19.2,2.9c-6.6,1.1-9.8,4.4-9.8,10c0,2.6,1,4.9,2.9,6.7C126.8,121.5,129.4,122.4,132.8,122.4z"/>
	<path d="M203.4,91.4v42.6h-17.6V60.2h17.1V70c2.3-4,5.4-7,9.3-9c3.9-2,8.1-3,12.5-3c8.7,0,15.3,2.7,19.8,8.2
		c4.5,5.5,6.8,12.5,6.8,21.1v46.7h-17.6V90.3c0-4.9-1.2-8.9-3.6-11.9c-2.4-3-6.3-4.5-11.5-4.5c-4.8,0-8.6,1.6-11.3,4.9
		C204.7,82.2,203.4,86.3,203.4,91.4z"/>
	<path d="M319.4,108.2l14.8,4.7c-2.1,6.8-6.1,12.3-11.9,16.7c-5.8,4.4-13,6.6-21.4,6.6c-10.5,0-19.4-3.6-26.7-10.8
		c-7.3-7.2-11-16.8-11-28.8c0-11.3,3.6-20.6,10.7-27.9c7.1-7.3,15.5-10.9,25.2-10.9c11.3,0,20.1,3.5,26.5,10.4
		c6.4,6.9,9.5,16.2,9.5,27.9c0,3.1-0.2,5-0.5,5.6h-53.9c0.2,5.6,2.2,10.1,6.1,13.8c3.9,3.6,8.6,5.5,14,5.5
		C310.4,121.1,316.6,116.8,319.4,108.2z M281.2,89h36.2c-0.2-4.6-1.8-8.5-4.9-11.7c-3.1-3.1-7.5-4.7-13.3-4.7
		c-5.3,0-9.5,1.6-12.7,4.9C283.3,80.8,281.5,84.6,281.2,89z"/>
</g>
<circle class="st0" cx="359" cy="121" r="13"/>
</svg>
